# xmcd
#
# Track frame offsets: 
#        182
#        17682
#        37310
#        59550
#        87972
#        105610
#        121720
#        141915
#        164270
#        181205
#        196370
#        216437
#        233657
#        256335
#        279632
#        302337
#        320300
#
# Disc length: 4553 seconds
#
# Revision: 8
# Processed by: cddbd v1.5.2PL0 Copyright (c) Steve Scherf et al.
# Submitted via: ExactAudioCopyFreeDBPlugin 1.0
#
DISCID=ee11c711
DTITLE=Various Artist - A Tribute to Curtis Mayfield [Warner Brothers
DTITLE=]
DYEAR=1994
DGENRE=Rhythm and Blues
TTITLE0=Gladys Knight - Choice of Colors
TTITLE1=Steve Winwood - It's All Right!
TTITLE2=Repercussions and Curits Mayfield - Let's Do it Again
TTITLE3=Lenny Kravitz - Billy Jack
TTITLE4=Whitney Houston - Look Into Your Heart
TTITLE5=Bruce Springsteen - Gypsy Woman
TTITLE6=Eric Clapton - You Must Believe Me
TTITLE7=The Isley Brothers - I'm So Proud
TTITLE8=Branford Marsalis and The Impressions - Fool for You
TTITLE9=Tevin Campbell - Keep on Pushin'
TTITLE10=Aretha Franklin - The Makings of You
TTITLE11=B.B. King - Woman's Got Soul
TTITLE12=Rod Stewart - People Get Ready
TTITLE13=Narada Michael Walden - (Don't Worry) If There's a Hell Below
TTITLE13=, We're All Going to Go
TTITLE14=Phil Collins - I've Been Trying
TTITLE15=Stevie Wonder - I'm the One Who Loves You
TTITLE16=Elton John and Sounds of Blackness - Amen
EXTD=
EXTT0=
EXTT1=
EXTT2=
EXTT3=
EXTT4=
EXTT5=
EXTT6=
EXTT7=
EXTT8=
EXTT9=
EXTT10=
EXTT11=
EXTT12=
EXTT13=
EXTT14=
EXTT15=
EXTT16=
PLAYORDER=
